<?xml version="1.0" encoding="iso-8859-1"?>
<!-- Uploaded to: SVG Repo, www.svgrepo.com, Generator: SVG Repo Mixer Tools -->
<svg height="800px" width="800px" version="1.1" id="Layer_1" xmlns="http://www.w3.org/2000/svg" xmlns:xlink="http://www.w3.org/1999/xlink" 
	 viewBox="0 0 202.001 202.001" xml:space="preserve">
<path style="fill:#F3A069;" d="M197.149,70.987h-61.284c-2.679,0-4.851-2.172-4.851-4.851V4.852c0-2.679-2.172-4.851-4.851-4.851
	H75.836c-2.679,0-4.851,2.172-4.851,4.851v61.284c0,2.679-2.172,4.851-4.851,4.851H4.851C2.172,70.987,0,73.159,0,75.837v50.327
	c0,2.679,2.172,4.851,4.851,4.851h61.284c2.679,0,4.851,2.172,4.851,4.851v61.284c0,2.679,2.172,4.851,4.851,4.851h50.327
	c2.679,0,4.851-2.172,4.851-4.851v-61.284c0-2.679,2.172-4.851,4.851-4.851h61.284c2.679,0,4.851-2.172,4.851-4.851V75.837
	C202,73.159,199.828,70.987,197.149,70.987z"/>
<path style="fill:#F3A069;" d="M101,0.001H75.836c-2.679,0-4.851,2.172-4.851,4.851v61.284c0,2.679-2.172,4.851-4.851,4.851H4.851
	C2.172,70.987,0,73.159,0,75.837v50.327c0,2.679,2.172,4.851,4.851,4.851h61.284c2.679,0,4.851,2.172,4.851,4.851v61.284
	c0,2.679,2.172,4.851,4.851,4.851H101V0.001z"/>
</svg>